<svg width="705" height="171" viewBox="0 0 705 171" fill="none" xmlns="http://www.w3.org/2000/svg">
<g clip-path="url(#clip0_2406_6981)">
<path d="M186.869 83.721H196.641C199.051 83.8552 201.371 82.9157 203.111 81.1261C204.807 79.3365 205.699 76.8759 205.565 74.3705C205.565 68.8229 201.996 65.1543 196.641 65.1543H186.869V83.721ZM180.444 116.38C178.704 116.425 177.053 115.709 175.804 114.412C174.599 113.114 173.974 111.325 174.019 109.491V60.6357C173.974 58.7566 174.644 57.0118 175.848 55.7144C177.098 54.3722 178.793 53.7011 180.533 53.7459H196.552C209.804 53.7459 218.639 62.0226 218.639 74.3258C218.639 86.7185 209.537 95.0847 196.552 95.0847H186.869V109.491C186.914 111.325 186.289 113.07 185.085 114.412C183.835 115.754 182.184 116.425 180.444 116.38V116.38Z" fill="white"/>
<path d="M250.007 83.5867H260.27C261.513 83.6641 262.758 83.4772 263.924 83.0381C265.09 82.5991 266.15 81.9179 267.035 81.0391C267.92 80.1604 268.609 79.1041 269.058 77.9394C269.507 76.7747 269.705 75.528 269.64 74.281C269.64 68.7782 265.847 65.1096 260.27 65.1096H250.007V83.5867ZM279.323 116.157C276.779 116.201 274.415 114.904 273.165 112.712L261.341 94.9057H249.963V109.312C249.963 111.103 249.253 112.822 247.989 114.089C246.726 115.355 245.012 116.067 243.225 116.067C241.438 116.067 239.724 115.355 238.461 114.089C237.197 112.822 236.487 111.103 236.487 109.312V60.5909C236.456 59.6797 236.612 58.7718 236.947 57.924C237.282 57.0763 237.788 56.307 238.433 55.6644C239.078 55.0218 239.848 54.5197 240.696 54.1895C241.544 53.8594 242.45 53.7084 243.359 53.7459H260.181C274.102 53.7459 283.383 61.9778 283.383 74.1916C283.453 77.3368 282.763 80.4523 281.373 83.2724C279.982 86.0925 277.931 88.5334 275.396 90.3871L274.058 91.3266L283.517 104.704C284.766 106.269 285.48 108.193 285.57 110.206C285.489 111.813 284.796 113.327 283.633 114.434C282.47 115.542 280.927 116.159 279.323 116.157V116.157Z" fill="white"/>
<path d="M327.959 65.6912C325.383 65.5645 322.808 65.9778 320.399 66.9048C317.991 67.8317 315.801 69.2519 313.971 71.0747C312.14 72.8974 310.709 75.0828 309.767 77.4914C308.826 79.8999 308.396 82.4787 308.505 85.0631C308.375 87.6529 308.791 90.2409 309.725 92.659C310.659 95.0771 312.089 97.2711 313.924 99.0983C315.759 100.925 317.957 102.345 320.375 103.264C322.793 104.184 325.377 104.583 327.959 104.435C339.561 104.435 347.414 96.4716 347.414 85.0631C347.509 82.4822 347.069 79.9094 346.123 77.5071C345.178 75.1048 343.746 72.925 341.918 71.1051C340.09 69.2851 337.906 67.8645 335.504 66.9327C333.102 66.0009 330.533 65.5782 327.959 65.6912V65.6912ZM327.87 116.38C309.13 116.38 294.494 102.646 294.494 85.0631C294.494 67.4807 309.174 53.7459 327.87 53.7459C346.566 53.7459 361.424 67.4807 361.424 85.0631C361.424 102.646 346.7 116.38 327.87 116.38Z" fill="white"/>
<path d="M397.12 116.38C396.226 116.393 395.339 116.224 394.512 115.882C393.686 115.541 392.937 115.035 392.311 114.395C391.685 113.755 391.196 112.994 390.872 112.159C390.548 111.324 390.396 110.431 390.427 109.535V65.6464H376.238C372.98 65.6464 370.348 62.9621 370.348 59.6962C370.348 56.3855 372.98 53.7459 376.238 53.7459H418.002C421.259 53.7459 423.892 56.4302 423.892 59.6962C423.892 62.9621 421.259 65.6464 418.002 65.6464H403.857V109.491C403.902 111.325 403.233 113.114 401.939 114.412C400.645 115.754 398.905 116.425 397.075 116.38H397.12Z" fill="white"/>
<path d="M461.82 65.6912C459.243 65.5645 456.668 65.9778 454.259 66.9048C451.851 67.8317 449.661 69.2519 447.831 71.0747C446 72.8974 444.569 75.0828 443.628 77.4914C442.687 79.8999 442.257 82.4787 442.365 85.0631C442.236 87.6529 442.651 90.2409 443.585 92.659C444.519 95.0771 445.95 97.2711 447.785 99.0983C449.62 100.925 451.818 102.345 454.236 103.264C456.654 104.184 459.238 104.583 461.82 104.435C473.421 104.435 481.274 96.4716 481.274 85.0631C481.369 82.4822 480.93 79.9094 479.984 77.5071C479.038 75.1048 477.606 72.925 475.778 71.1051C473.951 69.2851 471.767 67.8645 469.364 66.9327C466.962 66.0009 464.393 65.5782 461.82 65.6912V65.6912ZM461.73 116.38C442.99 116.38 428.354 102.646 428.354 85.0631C428.354 67.4807 443.035 53.7459 461.73 53.7459C480.426 53.7459 495.285 67.4807 495.285 85.0631C495.285 102.646 480.516 116.38 461.73 116.38Z" fill="white"/>
<path d="M515.23 116.38C514.351 116.412 513.475 116.256 512.66 115.925C511.845 115.593 511.109 115.093 510.5 114.457C509.251 113.114 508.581 111.325 508.715 109.535V60.5909C508.626 58.7119 509.295 56.9671 510.545 55.6696C511.794 54.3275 513.534 53.6564 515.319 53.7011H543.073C546.241 53.7011 548.829 56.3855 548.829 59.6514C548.846 60.4226 548.711 61.1897 548.43 61.908C548.15 62.6263 547.729 63.2813 547.193 63.8351C546.658 64.3889 546.018 64.8302 545.31 65.1335C544.603 65.4368 543.842 65.596 543.073 65.6017H521.789V81.2603H538.075C541.288 81.2603 543.876 83.9447 543.876 87.2553C543.888 88.0266 543.746 88.7925 543.46 89.5085C543.174 90.2245 542.749 90.8763 542.209 91.4259C541.669 91.9755 541.025 92.4119 540.316 92.7098C539.606 93.0076 538.845 93.161 538.075 93.1609H521.789V109.491C521.878 111.28 521.209 113.07 519.959 114.412C518.71 115.709 517.014 116.38 515.23 116.336V116.38Z" fill="white"/>
<path d="M573.371 116.38C571.586 116.425 569.801 115.754 568.552 114.501C567.918 113.873 567.424 113.118 567.101 112.286C566.778 111.453 566.634 110.562 566.678 109.67V60.6804C566.588 58.2645 567.838 55.9381 569.935 54.6854C570.975 54.0672 572.162 53.7411 573.371 53.7411C574.58 53.7411 575.766 54.0672 576.806 54.6854C578.904 55.9381 580.153 58.2645 580.064 60.6804V109.67C580.153 111.459 579.484 113.249 578.234 114.501C576.94 115.799 575.2 116.47 573.371 116.425V116.38Z" fill="white"/>
<path d="M611.431 83.5867H621.694C622.935 83.657 624.177 83.4652 625.34 83.0236C626.502 82.582 627.56 81.9005 628.443 81.0233C629.326 80.1461 630.016 79.0927 630.468 77.9312C630.919 76.7698 631.122 75.5262 631.064 74.281C631.064 68.7782 627.316 65.1096 621.694 65.1096H611.431V83.5867ZM640.791 116.157C638.293 116.201 635.883 114.904 634.678 112.712L622.809 94.9057H611.431V109.312C611.516 110.55 611.258 111.787 610.684 112.887C610.11 113.986 609.243 114.905 608.179 115.54C607.116 116.175 605.898 116.502 604.66 116.484C603.422 116.467 602.214 116.106 601.168 115.441C600.12 114.814 599.262 113.912 598.688 112.832C598.113 111.751 597.845 110.534 597.911 109.312V60.5909C597.88 59.6797 598.036 58.7718 598.371 57.924C598.706 57.0763 599.212 56.307 599.857 55.6644C600.502 55.0218 601.272 54.5197 602.12 54.1895C602.968 53.8594 603.874 53.7084 604.783 53.7459H621.605C635.526 53.7459 644.807 61.9778 644.807 74.1916C644.865 77.3332 644.165 80.4423 642.766 83.2543C641.368 86.0663 639.313 88.4979 636.776 90.3423L635.481 91.3266L644.941 104.704C646.19 106.269 646.904 108.193 646.994 110.206C646.914 111.805 646.227 113.312 645.073 114.419C643.92 115.525 642.388 116.147 640.791 116.157V116.157Z" fill="white"/>
<path d="M667.43 116.38C666.5 116.411 665.573 116.251 664.706 115.909C663.84 115.568 663.053 115.052 662.392 114.395C661.732 113.737 661.213 112.95 660.867 112.084C660.521 111.218 660.355 110.289 660.38 109.356V60.7699C660.335 59.8317 660.487 58.8944 660.826 58.0187C661.164 57.1431 661.683 56.3485 662.347 55.6864C663.012 55.0243 663.808 54.5095 664.683 54.1752C665.559 53.841 666.494 53.6947 667.43 53.7459H697.727C701.074 53.7459 703.795 56.4302 703.795 59.7856C703.795 63.141 701.074 65.8701 697.727 65.8701H674.167V78.397H689.785C692.863 78.397 695.318 80.8129 695.318 83.8552C695.318 86.8974 692.863 89.3581 689.785 89.3581H674.167V104.256H698.932C702.278 104.256 705 106.94 705 110.296C705 113.651 702.278 116.336 698.932 116.336L667.43 116.38Z" fill="white"/>
</g>
<defs>
<linearGradient id="paint0_linear_2406_6981" x1="34.4019" y1="114.278" x2="90.7241" y2="6.62428" gradientUnits="userSpaceOnUse">
<stop offset="0.01" stop-color="#F54703"/>
<stop offset="1" stop-color="#FAC902"/>
</linearGradient>
<clipPath id="clip0_2406_6981">
<rect width="705" height="170.008" fill="white" transform="translate(0 0.0591431)"/>
</clipPath>
</defs>
</svg>
