<svg width="36" height="36" viewBox="0 0 36 36" fill="none" xmlns="http://www.w3.org/2000/svg"
  class="sm:w-4/5 sm:text-right">
  <path
    d="M2.50153 35.5773C1.10485 34.9105 0.182327 33.5502 0.0897005 32.021C-0.0029259 30.4918 0.748818 29.0326 2.05504 28.2061C3.36127 27.3796 5.0179 27.315 6.38609 28.0371C8.44313 29.1228 9.24278 31.6339 8.1852 33.6867C7.12762 35.7396 4.60139 36.5799 2.50153 35.5773Z"
    fill="#F54703"></path>
  <path
    d="M1.52302 6.85134C-1.24729 11.9202 -0.14599 18.1947 4.19173 22.0559C4.67344 22.4919 5.42492 22.4824 5.88737 22.0464C7.76931 20.2967 8.36281 17.588 7.38069 15.2309C6.30276 12.7864 6.94414 9.93706 8.97036 8.16894C11.0345 6.36293 14.0029 5.96229 16.4851 7.15468C18.9456 8.30199 20.3906 10.8633 20.0787 13.5246C19.715 16.191 17.6927 18.3475 15.0207 18.9183C12.479 19.5103 10.5439 21.5412 10.1072 24.0749C10.0109 24.6911 10.4444 25.2693 11.0995 25.383C17.6991 26.5205 24.1733 22.8616 26.2833 16.8139C28.4028 10.7473 25.5125 4.14031 19.5103 1.29658C13.036 -1.7557 4.8565 0.775225 1.52302 6.85134Z"
    fill="url(#paint0_linear_1039_3367)"></path>
  <defs>
    <linearGradient id="paint0_linear_1039_3367" x1="19.4628" y1="29.6578" x2="30.4787" y2="6.5862"
      gradientUnits="userSpaceOnUse">
      <stop stop-color="#F54703"></stop>
      <stop offset="1" stop-color="#FAC902"></stop>
    </linearGradient>
  </defs>
</svg>