<svg xmlns="http://www.w3.org/2000/svg" id="Layer_1" x="0px" y="0px" viewBox="0 0 2500 731" style="enable-background:new 0 0 2500 731" xml:space="preserve" alt="Safe logo"><style type="text/css">
	.st0{fill:url(#SVGID_1_);}
	.st1{fill:url(#SVGID_00000127761753295174687660000013413449837180058511_);}
</style><g id="Layer_x0020_1"><g id="_2286893095664"><g><linearGradient id="SVGID_1_" gradientUnits="userSpaceOnUse" x1="-107.6992" y1="763.8288" x2="725.3008" y2="-69.1712" gradientTransform="matrix(0.8775 0 0 -0.8775 116.6191 648.1683)"><stop offset="0" style="stop-color:#FC829F"></stop><stop offset="0.3412" style="stop-color:#FF1C53"></stop><stop offset="0.4392" style="stop-color:#EA49F8"></stop><stop offset="0.5294" style="stop-color:#B250FF"></stop><stop offset="0.6392" style="stop-color:#5E5FF5"></stop><stop offset="1" style="stop-color:#323CFF"></stop></linearGradient><path class="st0" d="M365.9,0C164.1,0,0,164.1,0,365.9c0,21.9,1.8,43,5.3,64.1h81.6c10.5,0,16.7-3.5,20.2-9.7l28.1-47.4     L172,486.2c3.5,11.4,12.3,17.6,23.7,17.6c11.4,0,21.1-7,23.7-18.4l26.3-124.6l29,199.2c1.8,13.2,7.9,19.3,21.1,19.3l0,0     c13.2,0,19.3-7,21.1-20.2l58.8-387c0-0.9,0-1.8,0-2.6c0-10.5-7.9-20.2-19.3-21.9c-0.9,0-1.8,0-2.6,0c-10.5,0-20.2,7.9-21.9,19.3     l-36,248.3l-24.6-165.8c-1.8-12.3-11.4-20.2-21.9-21.1c-12.3,0-21.1,7-22.8,20.2l-35.1,162.3l-28.1-86.9     c-2.6-9.7-10.5-16.7-20.2-17.6c-12.3-1.8-20.2,5.3-25.4,14l-43,67.6H49.1c0-7-0.9-13.2-0.9-20.2c0-174.6,141.3-315.9,315.9-315.9     c140.4,0,259.7,92.1,301,219.4h51.8C674.8,116.7,532.6,2.7,364.2,2.7L365.9,0z"></path><linearGradient id="SVGID_00000103244560145935751110000001461803152743265976_" gradientUnits="userSpaceOnUse" x1="-157.3492" y1="714.1788" x2="675.6508" y2="-118.8212" gradientTransform="matrix(0.8775 0 0 -0.8775 116.6191 648.1683)"><stop offset="0" style="stop-color:#FC829F"></stop><stop offset="0.3412" style="stop-color:#FF1C53"></stop><stop offset="0.4392" style="stop-color:#EA49F8"></stop><stop offset="0.5294" style="stop-color:#B250FF"></stop><stop offset="0.6392" style="stop-color:#5E5FF5"></stop><stop offset="1" style="stop-color:#323CFF"></stop></linearGradient><path style="fill:url(#SVGID_00000103244560145935751110000001461803152743265976_)" d="M725.7,301.9h-81.6     c-10.5,0-16.7,3.5-20.2,9.7l-29,47.4l-36.9-113.2c-3.5-11.4-12.3-17.6-23.7-17.6c-11.4,0-21.1,7-23.7,18.4l-26.3,124.6l-29-199.2     c-1.8-13.2-7.9-19.3-21.1-19.3l0,0c-13.2,0-19.3,7-21.1,20.2l-58.8,387c-1.8,12.3,7,22.8,18.4,24.6c0.9,0,1.8,0,2.6,0     c10.5,0,20.2-7.9,21.9-19.3l36-248.3l24.6,165.8c1.8,12.3,11.4,20.2,21.9,21.1c12.3,0,21.1-7,23.7-20.2l35.1-162.3l28.1,86.9     c2.6,9.7,10.5,16.7,20.2,17.6c12.3,1.8,20.2-5.3,25.4-14l43-67.6h26.3c0.9,7,0.9,13.2,0.9,20.2c0,174.6-141.3,315.9-315.9,315.9     c-140.4,0-259.7-92.1-301-219.4H14c42.1,154.4,184.3,268.5,352.8,268.5c201.8,0,365.9-164.1,365.9-365.9c0-21.9-1.8-43-5.3-64.1     L725.7,301.9z"></path></g><path fill="white" d="M1069.7,183.4h75.5V466c0,14,3.5,24.6,10.5,31.6c4.4,3.5,8.8,6.1,14,8.8c5.3,1.8,10.5,2.6,16.7,2.6    c14,0,24.6-3.5,31.6-11.4c7-8.8,10.5-20.2,9.7-30.7V185.2h75.5v279c0,0,0,0.9,0,1.8c0,12.3-1.8,24.6-6.1,36    c-4.4,11.4-10.5,21.1-19.3,29c-9.7,8.8-21.9,14.9-34.2,19.3c-15.8,4.4-31.6,7-47.4,7c-0.9,0-2.6,0-3.5,0    c-23.7,0-42.1-3.5-55.3-9.7c-11.4-4.4-21.1-11.4-29-21.1c-7.9,8.8-17.5,16.7-29,21.1c-13.2,6.1-31.6,9.7-55.3,9.7    c-0.9,0-2.6,0-3.5,0c-15.8,0-32.5-2.6-47.4-7c-13.2-3.5-24.6-10.5-34.2-19.3c-8.8-7.9-15.8-18.4-19.3-29    c-4.4-11.4-6.1-23.7-6.1-36c0-0.9,0-0.9,0-1.8v-279h75.5v281.7c0,0.9,0,1.8,0,2.6c0,10.5,3.5,20.2,10.5,29    c7,7.9,17.6,11.4,31.6,11.4c0.9,0,1.8,0,2.6,0c10.5,0,20.2-3.5,28.1-10.5c7-7,10.5-17.6,10.5-31.6V185.2l0,0l0,0L1069.7,183.4z     M1376.8,183.4h200.9v47.4h-125.5v102.7h118.5v47.4h-118.5v119.3H1583v47.4h-206.2v-365l0,0l0,0V183.4z M1799.8,265.9    c0-14-3.5-24.6-10.5-31.6c-4.4-3.5-8.8-6.1-14-8.8c-4.4-1.8-9.7-2.6-14-2.6c-0.9,0-1.8,0-2.6,0c-14,0-24.6,3.5-31.6,11.4    c-7,8.8-10.5,20.2-9.7,30.7v281.7h-75.5V266.8v-0.9c0-12.3,1.8-24.6,6.1-36c4.4-11.4,10.5-21.1,19.3-29    c9.7-8.8,21.9-14.9,34.2-19.3c15.8-4.4,31.6-7,47.4-7c0.9,0,2.6,0,3.5,0c23.7,0,42.1,3.5,55.3,9.7c11.4,4.4,21.1,12.3,29,21.1    c7.9-9.7,17.6-16.7,29-21.1c13.2-6.1,31.6-9.7,55.3-9.7c0.9,0,2.6,0,4.4,0c15.8,0,31.6,2.6,47.4,7c13.2,3.5,24.6,10.5,34.2,19.3    c8.8,7.9,15.8,18.4,19.3,29c4.4,12.3,6.1,24.6,6.1,36.9v279h-75.5V264.1c0-0.9,0-1.8,0-2.6c0-10.5-3.5-20.2-10.5-29    c-7-7.9-16.7-11.4-31.6-11.4c-0.9,0-1.8,0-2.6,0c-4.4,0-9.7,0.9-14,2.6c-5.3,1.8-9.7,4.4-14,8.8c-7,7-10.5,17.6-10.5,31.6v282.6    H1798V264.1l0,0l0,0L1799.8,265.9z M2182.3,548.5h-75.5v-365h75.5V548.5L2182.3,548.5z M2238.5,183.4h76.3l52.6,113.2l52.7-113.2    h76.3l-91.3,179.9l94.8,184.3h-78.1l-53.5-120.2l-53.5,120.2h-78.1l93.9-184.3l-91.3-179.9l0,0H2238.5z"></path></g></g></svg>
