<svg width="297" height="41" viewBox="0 0 297 41" fill="none" xmlns="http://www.w3.org/2000/svg">
<mask id="mask0_23_1458" style="mask-type:luminance" maskUnits="userSpaceOnUse" x="176" y="11" width="121" height="19">
<path d="M296.148 11.9785H176.157V29.5156H296.148V11.9785Z" fill="white"/>
</mask>
<g mask="url(#mask0_23_1458)">
<path d="M184.284 20.3496C183.693 20.1144 182.971 19.9182 182.119 19.7605H182.101C181.272 19.6157 180.651 19.4825 180.237 19.3617C179.823 19.2414 179.497 19.0779 179.26 18.8724C179.023 18.6668 178.904 18.383 178.904 18.0204C178.904 17.4891 179.105 17.0844 179.507 16.8065C179.909 16.5285 180.438 16.3895 181.096 16.3895C181.814 16.3895 182.395 16.5705 182.84 16.9332C183.239 17.259 183.484 17.6724 183.574 18.1734C183.591 18.2733 183.677 18.3474 183.779 18.348L185.8 18.3632C185.925 18.3644 186.023 18.2587 186.011 18.136C185.943 17.4657 185.72 16.8567 185.343 16.3078C184.923 15.6976 184.344 15.2235 183.608 14.8854C182.871 14.5473 182.034 14.3779 181.096 14.3779C180.208 14.3779 179.407 14.5409 178.694 14.8673C177.982 15.1937 177.428 15.6462 177.032 16.2266C176.636 16.8065 176.438 17.4593 176.438 18.1839C176.438 18.9815 176.615 19.6215 176.968 20.105C177.321 20.5885 177.784 20.954 178.357 21.2016C178.929 21.4492 179.617 21.6454 180.421 21.7907L180.512 21.8089C181.364 21.9659 182 22.1049 182.421 22.2258C182.841 22.3467 183.172 22.516 183.416 22.7332C183.66 22.951 183.782 23.2471 183.782 23.6213C183.782 24.1533 183.563 24.5696 183.124 24.8715C182.686 25.1734 182.119 25.3246 181.425 25.3246C180.597 25.3246 179.927 25.1162 179.416 24.6993C178.95 24.3197 178.677 23.8333 178.594 23.2389C178.58 23.1361 178.494 23.0579 178.389 23.0567L176.371 23.0263C176.248 23.0246 176.149 23.1274 176.158 23.2488C176.215 23.9799 176.446 24.6385 176.849 25.2248C177.294 25.8712 177.906 26.3786 178.685 26.7471C179.464 27.1155 180.359 27.3 181.37 27.3C182.308 27.3 183.148 27.1307 183.891 26.7926C184.634 26.4545 185.215 25.9862 185.636 25.3883C186.056 24.7904 186.266 24.1171 186.266 23.3679C186.266 22.5703 186.083 21.9274 185.718 21.4381C185.352 20.9488 184.875 20.5862 184.284 20.3508L184.284 20.3496Z" fill="white"/>
<path d="M196.911 25.213H196.594C196.41 25.213 196.265 25.1647 196.162 25.067C196.057 24.9699 196.005 24.8116 196.005 24.5921V21.1034C196.005 19.9952 195.65 19.1519 194.939 18.5739C194.228 17.996 193.391 17.7012 192.08 17.7012C190.842 17.7012 189.874 17.9683 189.115 18.4921C188.422 18.9694 188.005 19.6232 187.862 20.4543C187.84 20.5831 187.938 20.702 188.07 20.702H189.938C190.032 20.702 190.116 20.6408 190.141 20.5514C190.226 20.2436 190.414 19.9928 190.705 19.798C191.042 19.5727 191.443 19.4603 191.97 19.4603C192.964 19.4603 193.671 20.0694 193.671 20.9763V21.2599C193.671 21.3759 193.577 21.4694 193.46 21.4694H191.768C190.395 21.4694 189.353 21.7372 188.643 22.2728C187.932 22.8089 187.576 23.5698 187.576 24.5556C187.576 25.4084 187.901 26.0781 188.551 26.5648C189.038 26.9303 189.621 27.141 190.221 27.2334C190.679 27.304 191.15 27.3299 191.609 27.2563C192.09 27.1798 192.481 26.9827 192.872 26.7019C193.223 26.45 193.517 26.1269 193.784 25.7326C193.915 25.5102 194.257 25.599 194.257 25.8568V26.1664C194.257 26.729 194.716 27.1857 195.283 27.1857H196.912C197.029 27.1857 197.123 27.0915 197.123 26.9762V25.4231C197.123 25.3071 197.028 25.2136 196.912 25.2136L196.911 25.213ZM193.67 23.3315C193.67 23.7823 193.575 24.1749 193.385 24.5097C192.987 25.2118 192.275 25.5779 191.473 25.5779C191.007 25.5779 190.633 25.4684 190.352 25.2495C190.07 25.03 189.929 24.738 189.929 24.3726C189.929 23.9589 190.085 23.6393 190.397 23.4139C190.71 23.1891 191.154 23.0761 191.73 23.0761H193.459C193.576 23.0761 193.67 23.1703 193.67 23.2856V23.3315Z" fill="white"/>
<path d="M203.653 14.5625H201.235C199.959 14.5625 198.924 15.592 198.924 16.8626V17.8727C198.924 17.9883 198.83 18.0815 198.714 18.0815H197.333C197.217 18.0815 197.123 18.1754 197.123 18.2904V19.8566C197.123 19.9722 197.218 20.0654 197.333 20.0654H198.714C198.83 20.0654 198.924 20.1593 198.924 20.2743V27.0912C198.924 27.2068 199.018 27.3 199.134 27.3H201.018C201.134 27.3 201.228 27.2062 201.228 27.0912V20.2743C201.228 20.1587 201.322 20.0654 201.438 20.0654H203.634C203.75 20.0654 203.844 19.9716 203.844 19.8566V18.2904C203.844 18.1748 203.749 18.0815 203.634 18.0815H201.438C201.322 18.0815 201.228 17.9877 201.228 17.8727V16.9647C201.228 16.7336 201.416 16.5464 201.648 16.5464H203.653C203.769 16.5464 203.862 16.4526 203.862 16.3376V14.7714C203.862 14.6558 203.768 14.5625 203.653 14.5625H203.653Z" fill="white"/>
<path d="M212.975 19.8263C212.56 19.1444 211.994 18.6204 211.275 18.2547C210.557 17.889 209.727 17.7012 208.787 17.7012C207.846 17.7012 207.034 17.9043 206.316 18.3006C205.598 18.6969 205.04 19.2569 204.644 19.9817C204.248 20.7066 204.05 21.5563 204.05 22.5308C204.05 23.5053 204.254 24.3191 204.662 25.0434C205.071 25.7683 205.656 26.3259 206.418 26.7157C207.179 27.1061 208.074 27.3004 209.102 27.3004C209.895 27.3004 210.604 27.1574 211.23 26.8712C211.854 26.585 212.36 26.1922 212.744 25.6923C213.072 25.2648 213.297 24.7967 213.416 24.2879C213.447 24.156 213.346 24.0294 213.208 24.0294H211.285C211.193 24.0294 211.113 24.0883 211.083 24.1737C210.948 24.5676 210.708 24.8785 210.365 25.1076C209.981 25.3631 209.505 25.4915 208.935 25.4915C208.464 25.4915 208.053 25.3943 207.699 25.1994C207.347 25.0045 207.068 24.7307 206.863 24.3768C206.783 24.2373 206.717 24.0901 206.664 23.9381C206.608 23.7751 206.567 23.6066 206.539 23.4365C206.529 23.377 206.52 23.3169 206.513 23.2569C206.499 23.1332 206.599 23.0249 206.726 23.0249H213.357C213.465 23.0249 213.557 22.9466 213.569 22.8411C213.578 22.764 213.584 22.6851 213.587 22.6044C213.593 22.4584 213.596 22.3242 213.596 22.2023C213.596 21.3007 213.389 20.5087 212.974 19.8263H212.975ZM210.983 21.4344H206.83C206.693 21.4344 206.591 21.3101 206.621 21.1794C206.687 20.8927 206.802 20.6336 206.966 20.4022C207.177 20.1036 207.449 19.8752 207.783 19.7168C208.117 19.5584 208.482 19.4795 208.878 19.4795C209.523 19.4795 210.055 19.6502 210.476 19.9912C210.837 20.2838 211.076 20.6795 211.191 21.1788C211.221 21.3101 211.119 21.435 210.983 21.435V21.4344Z" fill="white"/>
</g>
<path fill-rule="evenodd" clip-rule="evenodd" d="M32.2049 25.8568C32.4255 26.0802 32.7171 26.2034 33.0244 26.1957C33.3317 26.2034 33.6232 26.0879 33.8439 25.8568C34.0566 25.6257 34.1669 25.3253 34.159 25.0094V22.5291H35.8689C38.1618 22.5291 39.7692 21.0886 39.7692 18.9549C39.7692 16.8365 38.2091 15.4115 35.8689 15.4115H33.0401C32.7328 15.4038 32.4334 15.5193 32.2128 15.7504C32.0001 15.9738 31.8819 16.2742 31.8897 16.5978V25.0094C31.8819 25.3253 31.9922 25.6334 32.2049 25.8568ZM35.8846 20.5728H34.159V17.376H35.8846C36.8301 17.376 37.4605 18.0077 37.4605 18.9629C37.4841 19.3942 37.3265 19.8179 37.0271 20.126C36.7198 20.4341 36.3101 20.5959 35.8846 20.5728Z" fill="white"/>
<path fill-rule="evenodd" clip-rule="evenodd" d="M49.2638 25.4797C49.4863 25.8571 49.9074 26.0805 50.3602 26.0728C50.9535 26.0735 51.4429 25.6228 51.4726 25.0483C51.4567 24.7017 51.3295 24.3705 51.1071 24.1009L49.4227 21.7977L49.6611 21.6359C50.5773 20.9881 51.1085 19.9466 51.0832 18.8474C51.0832 16.7445 49.4306 15.3271 46.9518 15.3271H43.9564C43.6294 15.3141 43.3115 15.4338 43.0793 15.6575C42.8471 15.8811 42.7215 16.1885 42.7329 16.5057V24.8943C42.7329 25.5367 43.27 26.0574 43.9326 26.0574C44.5952 26.0574 45.1323 25.5367 45.1323 24.8943V22.4139H47.1583L49.2638 25.4797ZM46.9675 20.4645H45.1401V17.2832H46.9675C47.9607 17.2832 48.636 17.9148 48.636 18.8623C48.6595 19.2966 48.4907 19.7199 48.1721 20.0259C47.8534 20.3319 47.4152 20.4915 46.9675 20.4645Z" fill="white"/>
<path fill-rule="evenodd" clip-rule="evenodd" d="M53.2043 20.6545C53.2043 23.7179 55.7629 26.1108 59.0392 26.1108C62.3311 26.1108 64.9053 23.7179 64.9053 20.6545C64.9053 17.5912 62.3077 15.1982 59.0392 15.1982C55.7707 15.1982 53.2043 17.5912 53.2043 20.6545ZM56.609 18.2172C57.2561 17.5751 58.1437 17.2347 59.0546 17.2793C59.9641 17.2395 60.8489 17.5815 61.4949 18.2225C62.1409 18.8636 62.4892 19.7453 62.4557 20.6544C62.4557 22.642 61.0827 24.0295 59.0546 24.0295C58.1417 24.0815 57.2497 23.7435 56.6009 23.0997C55.9521 22.4559 55.6077 21.5669 55.6535 20.6544C55.6151 19.7439 55.9619 18.8594 56.609 18.2172Z" fill="white"/>
<path d="M71.1896 26.1108C70.868 26.1153 70.5586 25.9903 70.3334 25.7649C70.1082 25.5396 69.987 25.2336 69.9979 24.9182V17.2716H67.4713C66.8913 17.2716 66.4225 16.804 66.4225 16.2349C66.4225 15.6581 66.8913 15.1982 67.4713 15.1982H74.908C75.488 15.1982 75.9567 15.6659 75.9567 16.2349C75.9567 16.804 75.488 17.2716 74.908 17.2716H72.3894V24.9104C72.3973 25.23 72.2781 25.5418 72.0477 25.7679C71.8173 26.0017 71.5074 26.1186 71.1817 26.1108H71.1896Z" fill="white"/>
<path fill-rule="evenodd" clip-rule="evenodd" d="M76.6064 20.6545C76.6064 23.7179 79.165 26.1108 82.4413 26.1108C85.7254 26.1108 88.3074 23.7179 88.3074 20.6545C88.3074 17.5912 85.7098 15.1982 82.4413 15.1982C79.1728 15.1982 76.6064 17.5912 76.6064 20.6545ZM80.0111 18.2172C80.6582 17.5751 81.5458 17.2347 82.4567 17.2793C83.3662 17.2395 84.251 17.5815 84.897 18.2225C85.543 18.8636 85.8913 19.7453 85.8578 20.6544C85.8578 22.642 84.4849 24.0295 82.4567 24.0295C81.5438 24.0815 80.6518 23.7435 80.003 23.0997C79.3543 22.4559 79.0098 21.5669 79.0556 20.6544C79.0172 19.7439 79.364 18.8594 80.0111 18.2172Z" fill="white"/>
<path d="M91.8597 26.1914C91.5431 26.2024 91.2368 26.0811 91.0175 25.8579C90.795 25.6252 90.6759 25.3149 90.6997 25.0047V16.5191C90.6838 16.1933 90.803 15.8908 91.0254 15.6659C91.2479 15.4332 91.5578 15.3168 91.8756 15.3246H96.8175C97.3816 15.3246 97.8424 15.79 97.8424 16.3562C97.8488 16.6263 97.7439 16.8876 97.5512 17.0815C97.3585 17.2755 97.0942 17.3858 96.8175 17.3878H93.0276V20.1026H95.9276C96.4997 20.1026 96.9605 20.568 96.9605 21.142C96.9647 21.4121 96.8578 21.6725 96.6636 21.865C96.4695 22.0575 96.2043 22.1658 95.9276 22.1658H93.0276V24.9969C93.0435 25.3072 92.9243 25.6175 92.7019 25.8501C92.4794 26.0751 92.1775 26.1914 91.8597 26.1837V26.1914Z" fill="white"/>
<path d="M102.177 26.19C101.865 26.1978 101.553 26.0814 101.334 25.8642C101.11 25.644 100.991 25.3394 101.007 25.0265V16.5332C100.991 16.1143 101.209 15.711 101.576 15.4938C101.946 15.2755 102.407 15.2755 102.777 15.4938C103.144 15.711 103.362 16.1143 103.347 16.5332V25.0265C103.362 25.3368 103.245 25.6471 103.027 25.8642C102.801 26.0892 102.497 26.2055 102.177 26.1978V26.19Z" fill="white"/>
<path fill-rule="evenodd" clip-rule="evenodd" d="M113.097 25.5551C113.308 25.9352 113.731 26.1601 114.17 26.1523C114.752 26.1489 115.23 25.6962 115.259 25.1207C115.243 24.7717 115.118 24.4382 114.899 24.1667L113.238 21.8475L113.465 21.6768C114.369 21.0278 114.896 19.9822 114.875 18.8767C114.875 16.7592 113.246 15.332 110.802 15.332H107.848C107.526 15.3189 107.212 15.4394 106.983 15.6646C106.754 15.8899 106.63 16.1994 106.642 16.5188V24.9656C106.618 25.3975 106.838 25.8068 107.214 26.0282C107.588 26.2633 108.064 26.2699 108.444 26.0454C108.825 25.8208 109.046 25.4033 109.015 24.9656V22.468H111.013L113.097 25.5551ZM110.817 20.5052H109.015V17.3018H110.817C111.804 17.3018 112.462 17.9378 112.462 18.8918C112.483 19.3284 112.316 19.7532 112.002 20.0608C111.689 20.3683 111.258 20.5298 110.817 20.5052Z" fill="white"/>
<path d="M118.744 26.1909C118.409 26.2017 118.084 26.0771 117.847 25.8466C117.609 25.6161 117.479 25.3001 117.488 24.9731V16.5496C117.472 16.2206 117.599 15.9004 117.839 15.6682C118.078 15.4361 118.407 15.3139 118.744 15.3318H124.138C124.734 15.3318 125.219 15.7972 125.219 16.3789C125.219 16.9607 124.734 17.4338 124.138 17.4338H119.943V19.6056H122.724C123.272 19.6056 123.709 20.0245 123.709 20.5519C123.709 21.0794 123.272 21.506 122.724 21.506H119.943V24.0889H124.353C124.949 24.0889 125.433 24.5543 125.433 25.136C125.433 25.7178 124.949 26.1831 124.353 26.1831L118.744 26.1909Z" fill="white"/>
<path d="M3.03266 35.1486C1.88834 34.6023 1.1325 33.4877 1.05661 32.2348C0.980717 30.9819 1.59663 29.7864 2.66685 29.1093C3.73706 28.4321 5.09436 28.3791 6.21534 28.9708C7.90071 29.8603 8.55588 31.9177 7.68938 33.5996C6.82289 35.2815 4.75311 35.97 3.03266 35.1486Z" fill="#F54703"/>
<path d="M2.23073 11.6134C-0.0390227 15.7664 0.863289 20.9072 4.41725 24.0707C4.81193 24.428 5.42763 24.4202 5.80652 24.063C7.34842 22.6295 7.83469 20.4101 7.03002 18.4789C6.14685 16.4761 6.67235 14.1416 8.33246 12.6929C10.0237 11.2133 12.4557 10.885 14.4894 11.8619C16.5054 12.802 17.6892 14.9005 17.4337 17.081C17.1358 19.2655 15.4788 21.0324 13.2896 21.5C11.2071 21.9851 9.62167 23.649 9.2639 25.725C9.18496 26.2298 9.54017 26.7035 10.0769 26.7967C15.484 27.7287 20.7885 24.7309 22.5172 19.7759C24.2538 14.8054 21.8857 9.39223 16.968 7.06231C11.6635 4.56152 4.96191 6.63515 2.23073 11.6134Z" fill="url(#paint0_linear_23_1458)"/>
<rect x="151.157" y="0.74707" width="1" height="40" fill="#303033"/>
<defs>
<linearGradient id="paint0_linear_23_1458" x1="16.9291" y1="30.2991" x2="25.9546" y2="11.3962" gradientUnits="userSpaceOnUse">
<stop stop-color="#F54703"/>
<stop offset="1" stop-color="#FAC902"/>
</linearGradient>
</defs>
</svg>
